<svg width="55" height="93" viewBox="0 0 55 93" fill="none" xmlns="http://www.w3.org/2000/svg">
<path d="M27.8765 3.99677C44.8779 17.8561 48.6635 27.499 47.2508 47.3585C44.7551 68.0313 40.2041 76.402 27.8765 87.0298C8.50207 82.4169 2.04395 68.1168 2.04395 47.3585C2.04395 26.6002 6.92862 14.1337 27.8765 3.99677Z" fill="#101010"/>
<path d="M48.5748 47.4672C50.0706 26.4375 46.062 16.2265 28.0588 1.55048C5.8766 12.2847 0.704102 25.4858 0.704102 47.4672C0.704102 69.4487 7.54276 84.5914 28.0588 89.4762" stroke="url(#paint0_linear_3_13)"/>
<path d="M32.9359 83.5134V55.1497H51.3833V59.4569H38.074V67.1572H50.4277V71.4644H38.074V79.2062H51.4941V83.5134H32.9359Z" fill="url(#paint1_linear_3_13)"/>
<path d="M21.5418 67.9913C21.1031 67.9426 20.8301 67.3801 20.4618 67.1427C19.6017 66.5884 18.5211 65.981 17.8388 65.2012C16.9861 64.2267 16.6107 62.7954 16.2058 61.601C15.0413 58.1657 14.7701 54.5447 13.6729 51.0961" stroke="url(#paint2_linear_3_13)" stroke-linecap="round"/>
<path d="M21.7734 59.5437C21.7734 55.5685 22.7847 51.5825 24.5507 48.0102C25.6365 45.8141 27.4929 44.897 29.6424 44.0372" stroke="url(#paint3_linear_3_13)" stroke-linecap="round"/>
<path d="M21.1799 47.3744C21.1799 44.794 20.5367 41.9568 20.0139 39.4474C19.0042 34.6003 18.5395 29.7491 18.0935 24.8089" stroke="url(#paint4_linear_3_13)" stroke-linecap="round"/>
<path d="M24.7819 27.0263C26.0441 25.5346 26.8982 25.11 28.8964 24.5319C31.6377 23.7387 34.4528 23.7117 37.2797 23.5547" stroke="url(#paint5_linear_3_13)" stroke-linecap="round"/>
<path d="M29.6422 12.214C29.5464 13.172 28.7749 14.7033 28.2536 15.5313C27.704 16.4042 27.5816 17.5164 27.1478 18.4629C26.6935 19.454 26.3788 20.7413 26.1192 21.8059C25.7617 23.2715 24.979 24.846 24.7948 26.319C24.6432 27.5323 24.0436 28.6427 23.7276 29.8164C23.2861 31.4564 22.8233 33.1043 22.3518 34.7281C21.6239 37.2353 21.3776 39.8065 21.3104 42.4299C21.2559 44.5524 21.3104 46.6843 21.3104 48.8074C21.3104 51.5146 20.9506 54.4766 21.4261 57.1393C22.0174 60.4504 21.3631 64.0097 21.5547 67.3612C21.6194 68.4936 22.0539 69.9133 22.3647 70.9871C22.9116 72.8766 23.006 75.0856 23.8562 76.786" stroke="url(#paint6_linear_3_13)" stroke-linecap="round"/>
<defs>
<linearGradient id="paint0_linear_3_13" x1="24.7826" y1="1.55048" x2="24.7826" y2="89.4762" gradientUnits="userSpaceOnUse">
<stop stop-color="white"/>
<stop offset="1" stop-color="#FF6B00"/>
</linearGradient>
<linearGradient id="paint1_linear_3_13" x1="33.6408" y1="55.7574" x2="49.1253" y2="82.5426" gradientUnits="userSpaceOnUse">
<stop offset="0.0375492" stop-color="#FFB800"/>
<stop offset="1" stop-color="#FF6B00"/>
</linearGradient>
<linearGradient id="paint2_linear_3_13" x1="17.6073" y1="51.0961" x2="17.6073" y2="67.9913" gradientUnits="userSpaceOnUse">
<stop stop-color="#002A34"/>
<stop offset="1" stop-color="#FFB800"/>
</linearGradient>
<linearGradient id="paint3_linear_3_13" x1="25.7079" y1="44.0372" x2="25.7079" y2="59.5437" gradientUnits="userSpaceOnUse">
<stop stop-color="#002A34"/>
<stop offset="1" stop-color="#FFB800"/>
</linearGradient>
<linearGradient id="paint4_linear_3_13" x1="19.6367" y1="24.8089" x2="19.6367" y2="47.3744" gradientUnits="userSpaceOnUse">
<stop stop-color="#002A34"/>
<stop offset="1" stop-color="#FFB800"/>
</linearGradient>
<linearGradient id="paint5_linear_3_13" x1="31.0308" y1="23.5547" x2="31.0308" y2="27.0263" gradientUnits="userSpaceOnUse">
<stop stop-color="#002A34"/>
<stop offset="1" stop-color="#FFB800"/>
</linearGradient>
<linearGradient id="paint6_linear_3_13" x1="25.4111" y1="12.214" x2="25.4111" y2="76.786" gradientUnits="userSpaceOnUse">
<stop stop-color="#002A34"/>
<stop offset="1" stop-color="#FFB800"/>
</linearGradient>
</defs>
</svg>
