<svg width="250" height="93" viewBox="0 0 250 93" fill="none" xmlns="http://www.w3.org/2000/svg">
<path d="M48.5747 47.4672C50.0706 26.4375 46.062 16.2265 28.0588 1.55048C5.87659 12.2847 0.704102 25.4858 0.704102 47.4672C0.704102 69.4487 7.54276 84.5914 28.0588 89.4762" stroke="url(#paint0_linear_3_29)"/>
<path d="M32.9359 83.5134V55.1497H51.3833V59.4569H38.074V67.1572H50.4277V71.4644H38.074V79.2062H51.4941V83.5134H32.9359Z" fill="url(#paint1_linear_3_29)"/>
<path d="M21.5418 67.9913C21.1031 67.9426 20.8301 67.3801 20.4618 67.1427C19.6017 66.5884 18.5211 65.981 17.8388 65.2012C16.9861 64.2267 16.6107 62.7954 16.2058 61.601C15.0413 58.1657 14.7701 54.5447 13.6729 51.0961" stroke="url(#paint2_linear_3_29)" stroke-linecap="round"/>
<path d="M21.7734 59.5437C21.7734 55.5685 22.7847 51.5825 24.5507 48.0102C25.6365 45.8141 27.4929 44.897 29.6424 44.0372" stroke="url(#paint3_linear_3_29)" stroke-linecap="round"/>
<path d="M21.1799 47.3744C21.1799 44.794 20.5367 41.9568 20.0139 39.4474C19.0042 34.6003 18.5395 29.7491 18.0935 24.8089" stroke="url(#paint4_linear_3_29)" stroke-linecap="round"/>
<path d="M24.7819 27.0263C26.0441 25.5346 26.8982 25.11 28.8964 24.5319C31.6377 23.7387 34.4528 23.7117 37.2797 23.5547" stroke="url(#paint5_linear_3_29)" stroke-linecap="round"/>
<path d="M29.6422 12.214C29.5464 13.172 28.7749 14.7033 28.2536 15.5313C27.704 16.4042 27.5816 17.5164 27.1478 18.4629C26.6935 19.454 26.3788 20.7413 26.1192 21.8059C25.7617 23.2715 24.979 24.846 24.7948 26.319C24.6432 27.5323 24.0436 28.6427 23.7276 29.8164C23.2861 31.4564 22.8233 33.1043 22.3518 34.7281C21.6239 37.2353 21.3776 39.8065 21.3104 42.4299C21.2559 44.5524 21.3104 46.6843 21.3104 48.8074C21.3104 51.5146 20.9506 54.4766 21.4261 57.1393C22.0174 60.4504 21.3631 64.0097 21.5547 67.3612C21.6194 68.4936 22.0539 69.9133 22.3647 70.9871C22.9116 72.8766 23.006 75.0856 23.8562 76.786" stroke="url(#paint6_linear_3_29)" stroke-linecap="round"/>
<path d="M95.8021 84.0535C93.5216 84.0535 91.5642 83.4764 89.9299 82.3223C88.3049 81.159 87.0539 79.4832 86.1767 77.295C85.3088 75.0975 84.8749 72.4523 84.8749 69.3592C84.8841 66.2662 85.3227 63.6348 86.1906 61.4651C87.0677 59.2861 88.3188 57.6242 89.9438 56.4793C91.578 55.3344 93.5308 54.7619 95.8021 54.7619C98.0734 54.7619 100.026 55.3344 101.66 56.4793C103.295 57.6242 104.546 59.2861 105.414 61.4651C106.291 63.644 106.729 66.2754 106.729 69.3592C106.729 72.4615 106.291 75.1114 105.414 77.3088C104.546 79.497 103.295 81.1682 101.66 82.3223C100.035 83.4764 98.0826 84.0535 95.8021 84.0535ZM95.8021 79.7186C97.5748 79.7186 98.9736 78.8461 99.9985 77.1011C101.033 75.3468 101.55 72.7662 101.55 69.3592C101.55 67.1064 101.314 65.2137 100.843 63.681C100.372 62.1483 99.7076 60.9942 98.849 60.2186C97.9903 59.4338 96.9747 59.0414 95.8021 59.0414C94.0386 59.0414 92.6444 59.9186 91.6196 61.6728C90.5947 63.4178 90.0777 65.98 90.0684 69.3592C90.0592 71.6213 90.2854 73.5233 90.7471 75.0652C91.2179 76.6071 91.8827 77.7705 92.7414 78.5553C93.6 79.3308 94.6203 79.7186 95.8021 79.7186ZM111.608 83.5134V55.1497H130.055V59.4569H116.746V67.1572H129.1V71.4644H116.746V79.2062H130.166V83.5134H111.608ZM135.076 83.5134V62.2406H139.937V65.7861H140.158C140.546 64.5581 141.211 63.6117 142.153 62.947C143.104 62.273 144.189 61.936 145.407 61.936C145.684 61.936 145.994 61.9498 146.335 61.9775C146.686 61.996 146.977 62.0283 147.208 62.0744V66.6863C146.995 66.6124 146.658 66.5478 146.197 66.4924C145.744 66.4278 145.306 66.3955 144.881 66.3955C143.967 66.3955 143.145 66.594 142.416 66.991C141.696 67.3788 141.128 67.9189 140.712 68.6114C140.297 69.3038 140.089 70.1025 140.089 71.0073V83.5134H135.076ZM150.539 83.5134V62.2406H155.4V65.7861H155.621C156.009 64.5581 156.674 63.6117 157.616 62.947C158.567 62.273 159.651 61.936 160.87 61.936C161.147 61.936 161.456 61.9498 161.798 61.9775C162.149 61.996 162.44 62.0283 162.671 62.0744V66.6863C162.458 66.6124 162.121 66.5478 161.66 66.4924C161.207 66.4278 160.769 66.3955 160.344 66.3955C159.43 66.3955 158.608 66.594 157.879 66.991C157.159 67.3788 156.591 67.9189 156.175 68.6114C155.76 69.3038 155.552 70.1025 155.552 71.0073V83.5134H150.539ZM174.405 83.9288C172.327 83.9288 170.527 83.4718 169.003 82.5578C167.48 81.6437 166.298 80.3649 165.458 78.7215C164.627 77.078 164.211 75.1575 164.211 72.9601C164.211 70.7627 164.627 68.8376 165.458 67.1849C166.298 65.5322 167.48 64.2488 169.003 63.3347C170.527 62.4207 172.327 61.9637 174.405 61.9637C176.482 61.9637 178.282 62.4207 179.806 63.3347C181.329 64.2488 182.506 65.5322 183.337 67.1849C184.178 68.8376 184.598 70.7627 184.598 72.9601C184.598 75.1575 184.178 77.078 183.337 78.7215C182.506 80.3649 181.329 81.6437 179.806 82.5578C178.282 83.4718 176.482 83.9288 174.405 83.9288ZM174.432 79.9125C175.559 79.9125 176.5 79.6032 177.258 78.9846C178.015 78.3568 178.578 77.5166 178.947 76.464C179.326 75.4114 179.515 74.2389 179.515 72.9462C179.515 71.6444 179.326 70.4672 178.947 69.4146C178.578 68.3529 178.015 67.508 177.258 66.8802C176.5 66.2524 175.559 65.9384 174.432 65.9384C173.278 65.9384 172.318 66.2524 171.552 66.8802C170.794 67.508 170.227 68.3529 169.848 69.4146C169.479 70.4672 169.294 71.6444 169.294 72.9462C169.294 74.2389 169.479 75.4114 169.848 76.464C170.227 77.5166 170.794 78.3568 171.552 78.9846C172.318 79.6032 173.278 79.9125 174.432 79.9125ZM188.853 83.5134V62.2406H193.714V65.7861H193.936C194.323 64.5581 194.988 63.6117 195.93 62.947C196.881 62.273 197.966 61.936 199.185 61.936C199.462 61.936 199.771 61.9498 200.113 61.9775C200.463 61.996 200.754 62.0283 200.985 62.0744V66.6863C200.773 66.6124 200.436 66.5478 199.974 66.4924C199.522 66.4278 199.083 66.3955 198.658 66.3955C197.744 66.3955 196.923 66.594 196.193 66.991C195.473 67.3788 194.905 67.9189 194.49 68.6114C194.074 69.3038 193.866 70.1025 193.866 71.0073V83.5134H188.853ZM204.967 83.8181C204.127 83.8181 203.406 83.5226 202.806 82.9317C202.206 82.3408 201.911 81.6206 201.92 80.7712C201.911 79.9402 202.206 79.2293 202.806 78.6384C203.406 78.0475 204.127 77.752 204.967 77.752C205.779 77.752 206.486 78.0475 207.086 78.6384C207.695 79.2293 208.004 79.9402 208.014 80.7712C208.004 81.3344 207.857 81.8468 207.57 82.3085C207.293 82.7701 206.924 83.1394 206.463 83.4164C206.01 83.6842 205.512 83.8181 204.967 83.8181ZM217.054 83.5134H211.57L221.555 55.1497H227.898L237.897 83.5134H232.413L224.837 60.9665H224.616L217.054 83.5134ZM217.234 72.3923H232.191V76.5194H217.234V72.3923ZM241.564 83.5134V62.2406H246.577V83.5134H241.564ZM244.085 59.2215C243.29 59.2215 242.607 58.9583 242.035 58.432C241.462 57.8965 241.176 57.2548 241.176 56.507C241.176 55.7499 241.462 55.1082 242.035 54.5819C242.607 54.0464 243.29 53.7786 244.085 53.7786C244.888 53.7786 245.571 54.0464 246.134 54.5819C246.707 55.1082 246.993 55.7499 246.993 56.507C246.993 57.2548 246.707 57.8965 246.134 58.432C245.571 58.9583 244.888 59.2215 244.085 59.2215Z" fill="#FF8F49"/>
<defs>
<linearGradient id="paint0_linear_3_29" x1="24.7826" y1="1.55048" x2="24.7826" y2="89.4762" gradientUnits="userSpaceOnUse">
<stop stop-color="white"/>
<stop offset="1" stop-color="#FF6B00"/>
</linearGradient>
<linearGradient id="paint1_linear_3_29" x1="33.6408" y1="55.7574" x2="49.1253" y2="82.5426" gradientUnits="userSpaceOnUse">
<stop offset="0.0375492" stop-color="#FFB800"/>
<stop offset="1" stop-color="#FF6B00"/>
</linearGradient>
<linearGradient id="paint2_linear_3_29" x1="17.6073" y1="51.0961" x2="17.6073" y2="67.9913" gradientUnits="userSpaceOnUse">
<stop stop-color="#002A34"/>
<stop offset="1" stop-color="#FFB800"/>
</linearGradient>
<linearGradient id="paint3_linear_3_29" x1="25.7079" y1="44.0372" x2="25.7079" y2="59.5437" gradientUnits="userSpaceOnUse">
<stop stop-color="#002A34"/>
<stop offset="1" stop-color="#FFB800"/>
</linearGradient>
<linearGradient id="paint4_linear_3_29" x1="19.6367" y1="24.8089" x2="19.6367" y2="47.3744" gradientUnits="userSpaceOnUse">
<stop stop-color="#002A34"/>
<stop offset="1" stop-color="#FFB800"/>
</linearGradient>
<linearGradient id="paint5_linear_3_29" x1="31.0308" y1="23.5547" x2="31.0308" y2="27.0263" gradientUnits="userSpaceOnUse">
<stop stop-color="#002A34"/>
<stop offset="1" stop-color="#FFB800"/>
</linearGradient>
<linearGradient id="paint6_linear_3_29" x1="25.4111" y1="12.214" x2="25.4111" y2="76.786" gradientUnits="userSpaceOnUse">
<stop stop-color="#002A34"/>
<stop offset="1" stop-color="#FFB800"/>
</linearGradient>
</defs>
</svg>
