<svg width="88" height="23" viewBox="0 0 88 23" fill="none" xmlns="http://www.w3.org/2000/svg">
<path d="M0.28907 11.6455C0.28907 7.6904 0.904305 4.88278 2.13477 3.22263C3.36524 1.56247 5.25001 0.732391 7.78907 0.732391C10.3281 0.732391 12.2129 1.56247 13.4434 3.22263C14.6738 4.88278 15.2891 7.6904 15.2891 11.6455C15.2891 15.6006 14.6738 18.4082 13.4434 20.0683C12.2129 21.7285 10.3281 22.5586 7.78907 22.5586C5.25001 22.5586 3.36524 21.7285 2.13477 20.0683C0.904305 18.4082 0.28907 15.6006 0.28907 11.6455ZM4.62501 11.6455C4.62501 13.4521 4.77149 15.1904 5.06446 16.8603C5.3672 18.5302 6.2754 19.3652 7.78907 19.3652C9.30274 19.3652 10.2061 18.5302 10.499 16.8603C10.8018 15.1904 10.9531 13.4521 10.9531 11.6455C10.9531 9.83884 10.8018 8.10056 10.499 6.43063C10.2061 4.76071 9.30274 3.92575 7.78907 3.92575C6.2754 3.92575 5.3672 4.76071 5.06446 6.43063C4.77149 8.10056 4.62501 9.83884 4.62501 11.6455ZM19.9473 22.0605C19.2637 22.0605 18.9219 21.6943 18.9219 20.9619V2.15329C18.9219 1.42087 19.2637 1.05466 19.9473 1.05466H32.5156C33.2481 1.05466 33.6143 1.37204 33.6143 2.00681V3.73532C33.6143 4.37009 33.2481 4.68747 32.5156 4.68747H23.1992V9.34567H31.7393C32.4717 9.34567 32.8379 9.66306 32.8379 10.2978V12.0263C32.8379 12.6611 32.4717 12.9785 31.7393 12.9785H23.1992V18.4277H32.9844C33.7168 18.4277 34.083 18.7451 34.083 19.3799V21.1084C34.083 21.7431 33.7168 22.0605 32.9844 22.0605H19.9473Z" fill="#B8DF10"/>
<path d="M38.1992 22.0605C37.6133 22.0605 37.3203 21.7675 37.3203 21.1816V7.55856C37.3203 6.97263 37.6133 6.67966 38.1992 6.67966H40.5137C41.0996 6.67966 41.3926 6.97263 41.3926 7.55856V8.75974H41.4512C41.7051 8.13474 42.1299 7.58298 42.7256 7.10446C43.3213 6.62595 44.0244 6.38669 44.835 6.38669C45.3916 6.38669 45.8506 6.45505 46.2119 6.59177C46.5537 6.71872 46.6856 6.95309 46.6074 7.29489L46.1973 9.03806C46.1094 9.42868 45.8457 9.54587 45.4063 9.38962C45.1524 9.30173 44.9082 9.25778 44.6738 9.25778C43.7363 9.25778 42.96 9.81931 42.3447 10.9424C41.7295 12.0654 41.4219 13.7011 41.4219 15.8496V21.1816C41.4219 21.7675 41.1289 22.0605 40.543 22.0605H38.1992ZM49.7129 22.0605C49.127 22.0605 48.834 21.7675 48.834 21.1816V7.55856C48.834 6.97263 49.127 6.67966 49.7129 6.67966H52.0274C52.6133 6.67966 52.9063 6.97263 52.9063 7.55856V8.75974H52.9649C53.2188 8.13474 53.6436 7.58298 54.2393 7.10446C54.835 6.62595 55.5381 6.38669 56.3486 6.38669C56.9053 6.38669 57.3643 6.45505 57.7256 6.59177C58.0674 6.71872 58.1992 6.95309 58.1211 7.29489L57.7109 9.03806C57.6231 9.42868 57.3594 9.54587 56.9199 9.38962C56.666 9.30173 56.4219 9.25778 56.1875 9.25778C55.25 9.25778 54.4736 9.81931 53.8584 10.9424C53.2432 12.0654 52.9356 13.7011 52.9356 15.8496V21.1816C52.9356 21.7675 52.6426 22.0605 52.0566 22.0605H49.7129ZM59.5274 14.3701C59.5274 11.8799 60.167 9.92673 61.4463 8.51071C62.7354 7.0947 64.6494 6.38669 67.1885 6.38669C69.7275 6.38669 71.6367 7.0947 72.916 8.51071C74.2051 9.92673 74.8496 11.8799 74.8496 14.3701C74.8496 16.8603 74.2051 18.8134 72.916 20.2295C71.6367 21.6455 69.7275 22.3535 67.1885 22.3535C64.6494 22.3535 62.7354 21.6455 61.4463 20.2295C60.167 18.8134 59.5274 16.8603 59.5274 14.3701ZM63.8633 14.3701C63.8633 16.2256 64.1465 17.5439 64.7129 18.3252C65.2891 19.0966 66.1143 19.4824 67.1885 19.4824C68.2627 19.4824 69.083 19.0966 69.6494 18.3252C70.2256 17.5439 70.5137 16.2256 70.5137 14.3701C70.5137 12.5146 70.2256 11.2011 69.6494 10.4297C69.083 9.64841 68.2627 9.25778 67.1885 9.25778C66.1143 9.25778 65.2891 9.64841 64.7129 10.4297C64.1465 11.2011 63.8633 12.5146 63.8633 14.3701ZM78.8926 22.0605C78.3066 22.0605 78.0137 21.7675 78.0137 21.1816V7.55856C78.0137 6.97263 78.3066 6.67966 78.8926 6.67966H81.207C81.793 6.67966 82.0859 6.97263 82.0859 7.55856V8.75974H82.1445C82.3984 8.13474 82.8232 7.58298 83.419 7.10446C84.0147 6.62595 84.7178 6.38669 85.5283 6.38669C86.085 6.38669 86.544 6.45505 86.9053 6.59177C87.2471 6.71872 87.3789 6.95309 87.3008 7.29489L86.8906 9.03806C86.8027 9.42868 86.5391 9.54587 86.0996 9.38962C85.8457 9.30173 85.6016 9.25778 85.3672 9.25778C84.4297 9.25778 83.6533 9.81931 83.0381 10.9424C82.4229 12.0654 82.1152 13.7011 82.1152 15.8496V21.1816C82.1152 21.7675 81.8223 22.0605 81.2363 22.0605H78.8926Z" fill="white"/>
</svg>
