<svg width="108" height="28" viewBox="0 0 108 28" fill="none" xmlns="http://www.w3.org/2000/svg">
<path d="M0.191254 14.1882C0.191254 9.3103 0.950043 5.84757 2.46762 3.80005C3.9852 1.75252 6.30974 0.72876 9.44125 0.72876C12.5728 0.72876 14.8973 1.75252 16.4149 3.80005C17.9325 5.84757 18.6913 9.3103 18.6913 14.1882C18.6913 19.0662 17.9325 22.5289 16.4149 24.5764C14.8973 26.6239 12.5728 27.6477 9.44125 27.6477C6.30974 27.6477 3.9852 26.6239 2.46762 24.5764C0.950043 22.5289 0.191254 19.0662 0.191254 14.1882ZM5.53891 14.1882C5.53891 16.4164 5.71957 18.5603 6.0809 20.6199C6.45427 22.6794 7.57439 23.7092 9.44125 23.7092C11.3081 23.7092 12.4222 22.6794 12.7835 20.6199C13.1569 18.5603 13.3436 16.4164 13.3436 14.1882C13.3436 11.96 13.1569 9.81616 12.7835 7.75659C12.4222 5.69702 11.3081 4.66724 9.44125 4.66724C7.57439 4.66724 6.45427 5.69702 6.0809 7.75659C5.71957 9.81616 5.53891 11.96 5.53891 14.1882ZM24.4364 27.0334C23.5933 27.0334 23.1717 26.5818 23.1717 25.6785V2.4812C23.1717 1.57788 23.5933 1.12622 24.4364 1.12622H39.9373C40.8407 1.12622 41.2923 1.51766 41.2923 2.30054V4.43237C41.2923 5.21525 40.8407 5.60669 39.9373 5.60669H28.4471V11.3518H38.9798C39.8831 11.3518 40.3348 11.7432 40.3348 12.5261V14.658C40.3348 15.4408 39.8831 15.8323 38.9798 15.8323H28.4471V22.553H40.5155C41.4188 22.553 41.8705 22.9444 41.8705 23.7273V25.8591C41.8705 26.642 41.4188 27.0334 40.5155 27.0334H24.4364Z" fill="#B8DF10"/>
<path d="M46.9471 27.0334C46.2245 27.0334 45.8631 26.6721 45.8631 25.9495V9.14771C45.8631 8.42505 46.2245 8.06372 46.9471 8.06372H49.8016C50.5243 8.06372 50.8856 8.42505 50.8856 9.14771V10.6292H50.9579C51.271 9.85832 51.7949 9.17782 52.5296 8.58765C53.2643 7.99748 54.1315 7.70239 55.1312 7.70239C55.8177 7.70239 56.3838 7.7867 56.8294 7.95532C57.251 8.1119 57.4136 8.40096 57.3172 8.82251L56.8114 10.9724C56.703 11.4542 56.3778 11.5987 55.8358 11.406C55.5226 11.2976 55.2215 11.2434 54.9325 11.2434C53.7762 11.2434 52.8187 11.936 52.0599 13.321C51.3011 14.7061 50.9217 16.7236 50.9217 19.3733V25.9495C50.9217 26.6721 50.5604 27.0334 49.8377 27.0334H46.9471ZM61.1473 27.0334C60.4247 27.0334 60.0633 26.6721 60.0633 25.9495V9.14771C60.0633 8.42505 60.4247 8.06372 61.1473 8.06372H64.0018C64.7245 8.06372 65.0858 8.42505 65.0858 9.14771V10.6292H65.1581C65.4712 9.85832 65.9951 9.17782 66.7298 8.58765C67.4645 7.99748 68.3317 7.70239 69.3314 7.70239C70.0179 7.70239 70.584 7.7867 71.0296 7.95532C71.4512 8.1119 71.6138 8.40096 71.5174 8.82251L71.0116 10.9724C70.9032 11.4542 70.578 11.5987 70.036 11.406C69.7228 11.2976 69.4217 11.2434 69.1327 11.2434C67.9764 11.2434 67.0189 11.936 66.2601 13.321C65.5013 14.7061 65.1219 16.7236 65.1219 19.3733V25.9495C65.1219 26.6721 64.7606 27.0334 64.0379 27.0334H61.1473ZM73.2518 17.5486C73.2518 14.4773 74.0407 12.0684 75.6185 10.322C77.2083 8.5756 79.569 7.70239 82.7005 7.70239C85.832 7.70239 88.1867 8.5756 89.7645 10.322C91.3543 12.0684 92.1493 14.4773 92.1493 17.5486C92.1493 20.6199 91.3543 23.0287 89.7645 24.7751C88.1867 26.5216 85.832 27.3948 82.7005 27.3948C79.569 27.3948 77.2083 26.5216 75.6185 24.7751C74.0407 23.0287 73.2518 20.6199 73.2518 17.5486ZM78.5995 17.5486C78.5995 19.837 78.9487 21.463 79.6473 22.4265C80.3579 23.378 81.3757 23.8538 82.7005 23.8538C84.0254 23.8538 85.0371 23.378 85.7357 22.4265C86.4463 21.463 86.8016 19.837 86.8016 17.5486C86.8016 15.2602 86.4463 13.6402 85.7357 12.6887C85.0371 11.7252 84.0254 11.2434 82.7005 11.2434C81.3757 11.2434 80.3579 11.7252 79.6473 12.6887C78.9487 13.6402 78.5995 15.2602 78.5995 17.5486ZM97.1356 27.0334C96.4129 27.0334 96.0516 26.6721 96.0516 25.9495V9.14771C96.0516 8.42505 96.4129 8.06372 97.1356 8.06372H99.9901C100.713 8.06372 101.074 8.42505 101.074 9.14771V10.6292H101.146C101.459 9.85832 101.983 9.17782 102.718 8.58765C103.453 7.99748 104.32 7.70239 105.32 7.70239C106.006 7.70239 106.572 7.7867 107.018 7.95532C107.439 8.1119 107.602 8.40096 107.506 8.82251L107 10.9724C106.891 11.4542 106.566 11.5987 106.024 11.406C105.711 11.2976 105.41 11.2434 105.121 11.2434C103.965 11.2434 103.007 11.936 102.248 13.321C101.49 14.7061 101.11 16.7236 101.11 19.3733V25.9495C101.11 26.6721 100.749 27.0334 100.026 27.0334H97.1356Z" fill="white"/>
</svg>
